<svg xmlns="http://www.w3.org/2000/svg" xmlns:xlink="http://www.w3.org/1999/xlink" width="500" zoomAndPan="magnify" viewBox="0 0 375 374.999991" height="500" preserveAspectRatio="xMidYMid meet" version="1.0"><defs><clipPath id="bdbf4a5929"><path d="M 41.386719 14.359375 L 333.871094 14.359375 L 333.871094 360.773438 L 41.386719 360.773438 Z M 41.386719 14.359375 " clip-rule="nonzero"/></clipPath><clipPath id="8eb8358638"><path d="M 91 213 L 229 213 L 229 243.847656 L 91 243.847656 Z M 91 213 " clip-rule="nonzero"/></clipPath><clipPath id="9e705bdddb"><path d="M 104 51.097656 L 216 51.097656 L 216 222 L 104 222 Z M 104 51.097656 " clip-rule="nonzero"/></clipPath></defs><g clip-path="url(#bdbf4a5929)"><path fill="#38b6ff" d="M 333.871094 160.53125 C 333.871094 251.542969 202.039062 360.773438 187.628906 360.773438 C 173.214844 360.773438 41.386719 249.789062 41.386719 160.53125 C 41.386719 79.804688 106.859375 14.363281 187.628906 14.363281 C 268.394531 14.363281 333.871094 79.804688 333.871094 160.53125 " fill-opacity="1" fill-rule="nonzero"/></g><path fill="#38b6ff" d="M 195.972656 227.167969 C 193.238281 227.511719 190.457031 227.6875 187.628906 227.6875 C 150.578125 227.6875 120.441406 197.5625 120.441406 160.53125 C 120.441406 123.5 150.578125 93.378906 187.628906 93.378906 C 190.457031 93.378906 193.238281 93.554688 195.972656 93.894531 C 162.847656 98.015625 137.128906 126.328125 137.128906 160.53125 C 137.128906 194.738281 162.847656 223.050781 195.972656 227.167969 " fill-opacity="1" fill-rule="nonzero"/><g clip-path="url(#8eb8358638)"><path fill="#ffffff" d="M 228.890625 224.890625 C 228.890625 218.796875 223.949219 213.855469 217.847656 213.855469 C 194.9375 213.855469 125.058594 213.855469 102.144531 213.855469 C 96.046875 213.855469 91.097656 218.796875 91.097656 224.890625 C 91.097656 231.3125 91.097656 239.605469 91.097656 239.605469 C 91.097656 241.640625 92.746094 243.28125 94.78125 243.28125 L 225.210938 243.28125 C 227.25 243.28125 228.890625 241.640625 228.890625 239.605469 Z M 228.890625 224.890625 " fill-opacity="1" fill-rule="evenodd"/></g><g clip-path="url(#9e705bdddb)"><path fill="#ffffff" d="M 104.773438 217.535156 C 104.773438 219.570312 106.421875 221.210938 108.453125 221.210938 L 211.542969 221.210938 C 213.574219 221.210938 215.226562 219.570312 215.226562 217.535156 L 215.226562 62.457031 C 215.226562 56 210.203125 50.886719 204.179688 50.886719 C 185.203125 50.886719 134.792969 50.886719 115.816406 50.886719 C 109.785156 50.886719 104.773438 56 104.773438 62.457031 C 104.773438 62.457031 104.773438 217.535156 104.773438 217.535156 Z M 152.230469 174.40625 L 143.003906 174.40625 C 141.816406 174.40625 140.75 173.695312 140.292969 172.597656 C 139.84375 171.5 140.09375 170.242188 140.941406 169.410156 L 178.207031 132.390625 C 179.222656 131.382812 180.828125 131.257812 181.992188 132.105469 C 183.148438 132.945312 183.53125 134.503906 182.882812 135.785156 L 171.042969 159.304688 L 180.269531 159.304688 C 181.449219 159.304688 182.507812 160.011719 182.972656 161.089844 C 183.429688 162.179688 183.195312 163.429688 182.367188 164.269531 L 168.394531 178.59375 L 145.042969 201.339844 C 144.019531 202.335938 142.429688 202.453125 141.273438 201.605469 C 140.117188 200.757812 139.75 199.207031 140.390625 197.933594 Z M 199.414062 68.777344 C 199.414062 66.746094 197.765625 65.097656 195.734375 65.097656 L 124.261719 65.097656 C 122.230469 65.097656 120.582031 66.746094 120.582031 68.777344 L 120.582031 109.3125 C 120.582031 111.34375 122.230469 112.992188 124.261719 112.992188 L 195.734375 112.992188 C 197.765625 112.992188 199.414062 111.34375 199.414062 109.3125 Z M 199.414062 68.777344 " fill-opacity="1" fill-rule="evenodd"/></g><path fill="#ffffff" d="M 211.453125 199.140625 L 211.460938 199.140625 C 217.925781 199.140625 224.121094 196.582031 228.691406 192.019531 C 233.257812 187.449219 235.820312 181.265625 235.820312 174.804688 L 235.820312 92.585938 C 235.820312 82.367188 244.121094 74.074219 254.347656 74.074219 C 254.363281 74.074219 254.371094 74.074219 254.375 74.074219 C 264.613281 74.074219 272.902344 82.367188 272.902344 92.585938 C 272.902344 99.417969 272.902344 105.179688 272.902344 105.179688 C 272.902344 107.203125 274.550781 108.859375 276.585938 108.859375 C 278.617188 108.859375 280.265625 107.203125 280.265625 105.179688 C 280.265625 105.179688 280.265625 99.417969 280.265625 92.585938 C 280.265625 78.304688 268.675781 66.71875 254.375 66.71875 C 254.371094 66.71875 254.363281 66.71875 254.347656 66.71875 C 240.054688 66.71875 228.457031 78.304688 228.457031 92.585938 L 228.457031 174.804688 C 228.457031 179.3125 226.667969 183.632812 223.480469 186.8125 C 220.296875 189.996094 215.976562 191.785156 211.460938 191.785156 L 211.453125 191.785156 Z M 211.453125 199.140625 " fill-opacity="1" fill-rule="evenodd"/><path fill="#ffffff" d="M 255.78125 142.664062 C 255.78125 144.691406 257.433594 146.339844 259.464844 146.339844 L 293.710938 146.339844 C 295.746094 146.339844 297.394531 144.691406 297.394531 142.664062 L 297.394531 123.386719 C 297.394531 117.882812 295.199219 112.59375 291.304688 108.703125 C 287.402344 104.804688 282.113281 102.613281 276.601562 102.613281 C 276.59375 102.613281 276.585938 102.613281 276.578125 102.613281 C 271.0625 102.613281 265.773438 104.804688 261.871094 108.703125 C 257.96875 112.59375 255.78125 117.882812 255.78125 123.386719 C 255.78125 132.832031 255.78125 142.664062 255.78125 142.664062 Z M 255.78125 142.664062 " fill-opacity="1" fill-rule="evenodd"/><path fill="#ffffff" d="M 254.757812 146.339844 L 298.410156 146.339844 C 300.441406 146.339844 302.09375 144.691406 302.09375 142.664062 C 302.09375 140.632812 300.441406 138.984375 298.410156 138.984375 L 254.757812 138.984375 C 252.726562 138.984375 251.078125 140.632812 251.078125 142.664062 C 251.078125 144.691406 252.726562 146.339844 254.757812 146.339844 Z M 254.757812 146.339844 " fill-opacity="1" fill-rule="evenodd"/><path fill="#ffffff" d="M 284.292969 142.664062 L 284.292969 157.53125 C 284.292969 159.5625 285.945312 161.210938 287.976562 161.210938 C 290.007812 161.210938 291.65625 159.5625 291.65625 157.53125 L 291.65625 142.664062 C 291.65625 140.632812 290.007812 138.984375 287.976562 138.984375 C 285.945312 138.984375 284.292969 140.632812 284.292969 142.664062 Z M 284.292969 142.664062 " fill-opacity="1" fill-rule="evenodd"/><path fill="#ffffff" d="M 259.980469 142.664062 L 259.980469 157.53125 C 259.980469 159.5625 261.628906 161.210938 263.660156 161.210938 C 265.695312 161.210938 267.34375 159.5625 267.34375 157.53125 L 267.34375 142.664062 C 267.34375 140.632812 265.695312 138.984375 263.660156 138.984375 C 261.628906 138.984375 259.980469 140.632812 259.980469 142.664062 Z M 259.980469 142.664062 " fill-opacity="1" fill-rule="evenodd"/></svg>