<svg xmlns="http://www.w3.org/2000/svg" xmlns:xlink="http://www.w3.org/1999/xlink" width="500" zoomAndPan="magnify" viewBox="0 0 375 374.999991" height="500" preserveAspectRatio="xMidYMid meet" version="1.0"><defs><clipPath id="07551401df"><path d="M 53.535156 13 L 321 13 L 321 361.703125 L 53.535156 361.703125 Z M 53.535156 13 " clip-rule="nonzero"/></clipPath><clipPath id="861334e6cd"><path d="M 87.167969 83 L 187.488281 83 L 187.488281 219.617188 L 87.167969 219.617188 Z M 87.167969 83 " clip-rule="nonzero"/></clipPath><clipPath id="bd43d3de54"><path d="M 181 68.519531 L 269 68.519531 L 269 219.617188 L 181 219.617188 Z M 181 68.519531 " clip-rule="nonzero"/></clipPath><clipPath id="839fd8cab5"><path d="M 161.214844 213 L 288.140625 213 L 288.140625 219.617188 L 161.214844 219.617188 Z M 161.214844 213 " clip-rule="nonzero"/></clipPath><clipPath id="71d3bd370b"><path d="M 241 52.390625 L 249 52.390625 L 249 73 L 241 73 Z M 241 52.390625 " clip-rule="nonzero"/></clipPath><clipPath id="e131d8bd44"><path d="M 201 52.390625 L 209 52.390625 L 209 73 L 201 73 Z M 201 52.390625 " clip-rule="nonzero"/></clipPath></defs><g clip-path="url(#07551401df)"><path fill="#38b6ff" d="M 320.816406 146.472656 C 320.816406 220.140625 187.378906 361.960938 187.378906 361.960938 C 187.378906 361.960938 53.9375 220.140625 53.9375 146.472656 C 53.9375 72.800781 113.679688 13.078125 187.375 13.078125 C 261.066406 13.078125 320.816406 72.800781 320.816406 146.472656 Z M 320.816406 146.472656 " fill-opacity="1" fill-rule="nonzero"/></g><path fill="#ffffff" d="M 126.117188 156.828125 C 121.945312 156.828125 118.550781 160.214844 118.550781 164.378906 C 118.550781 168.542969 121.945312 171.933594 126.117188 171.933594 C 130.289062 171.933594 133.683594 168.542969 133.683594 164.378906 C 133.683594 160.214844 130.289062 156.828125 126.117188 156.828125 Z M 126.117188 178.214844 C 118.472656 178.214844 112.253906 172.007812 112.253906 164.378906 C 112.253906 156.75 118.472656 150.546875 126.117188 150.546875 C 133.761719 150.546875 139.980469 156.75 139.980469 164.378906 C 139.980469 172.007812 133.761719 178.214844 126.117188 178.214844 " fill-opacity="1" fill-rule="nonzero"/><path fill="#ffffff" d="M 184.175781 188.0625 L 154.964844 188.0625 C 153.226562 188.0625 151.820312 186.65625 151.820312 184.921875 C 151.820312 183.1875 153.226562 181.78125 154.964844 181.78125 L 184.175781 181.78125 C 185.914062 181.78125 187.324219 183.1875 187.324219 184.921875 C 187.324219 186.65625 185.914062 188.0625 184.175781 188.0625 " fill-opacity="1" fill-rule="nonzero"/><path fill="#ffffff" d="M 184.175781 204.847656 L 120.234375 204.847656 C 118.496094 204.847656 117.089844 203.441406 117.089844 201.707031 C 117.089844 199.972656 118.496094 198.566406 120.234375 198.566406 L 184.175781 198.566406 C 185.914062 198.566406 187.324219 199.972656 187.324219 201.707031 C 187.324219 203.441406 185.914062 204.847656 184.175781 204.847656 " fill-opacity="1" fill-rule="nonzero"/><path fill="#ffffff" d="M 134.558594 133.742188 L 181.027344 133.742188 L 181.027344 100.386719 C 174.308594 100.507812 167.605469 100.984375 161.054688 101.800781 C 157.082031 102.292969 154.054688 102.800781 152.050781 103.308594 C 150.234375 103.769531 148.710938 105.007812 147.871094 106.707031 Z M 184.175781 140.023438 L 129.503906 140.023438 C 128.417969 140.023438 127.410156 139.464844 126.832031 138.542969 C 126.257812 137.621094 126.199219 136.46875 126.679688 135.496094 L 142.222656 103.9375 C 143.875 100.582031 146.894531 98.132812 150.507812 97.21875 C 152.789062 96.640625 155.984375 96.101562 160.273438 95.566406 C 168.101562 94.589844 176.140625 94.089844 184.171875 94.074219 C 184.171875 94.074219 184.175781 94.074219 184.175781 94.074219 C 185.011719 94.074219 185.808594 94.402344 186.398438 94.988281 C 186.992188 95.582031 187.324219 96.378906 187.324219 97.210938 L 187.324219 136.882812 C 187.324219 138.617188 185.914062 140.023438 184.175781 140.023438 " fill-opacity="1" fill-rule="nonzero"/><g clip-path="url(#861334e6cd)"><path fill="#ffffff" d="M 124.195312 219.617188 L 105.910156 219.617188 C 101.25 219.617188 97.457031 215.828125 97.457031 211.175781 L 97.457031 165.457031 C 97.457031 158.324219 100.050781 151.445312 104.765625 146.085938 L 107.917969 142.503906 L 94.617188 138.53125 C 90.378906 137.269531 87.390625 133.558594 87.179688 129.296875 C 87.042969 126.5 88.03125 123.847656 89.957031 121.824219 C 91.859375 119.832031 94.53125 118.6875 97.289062 118.6875 L 109.609375 118.6875 C 113.71875 118.6875 117.390625 121.136719 118.960938 124.925781 L 119.296875 125.730469 L 133.933594 97.371094 C 136.859375 91.707031 142.148438 87.667969 148.449219 86.292969 C 151.292969 85.671875 156.421875 85.007812 163.699219 84.324219 C 170.523438 83.683594 177.40625 83.34375 184.164062 83.320312 C 184.167969 83.320312 184.171875 83.320312 184.175781 83.320312 C 185.910156 83.320312 187.316406 84.71875 187.324219 86.449219 C 187.332031 88.183594 185.925781 89.59375 184.1875 89.601562 C 177.621094 89.625 170.925781 89.953125 164.292969 90.582031 C 157.367188 91.230469 152.351562 91.871094 149.796875 92.429688 C 145.335938 93.402344 141.59375 96.253906 139.53125 100.246094 L 122.894531 132.476562 C 122.546875 133.152344 122.152344 133.871094 121.683594 134.683594 C 121.085938 135.722656 119.949219 136.335938 118.753906 136.257812 C 117.554688 136.179688 116.503906 135.429688 116.046875 134.324219 L 113.144531 127.328125 C 112.550781 125.894531 111.164062 124.96875 109.609375 124.96875 L 97.289062 124.96875 C 96.234375 124.96875 95.25 125.390625 94.519531 126.15625 C 93.789062 126.921875 93.414062 127.925781 93.46875 128.988281 C 93.546875 130.59375 94.734375 132.011719 96.417969 132.515625 L 114.40625 137.882812 C 115.421875 138.183594 116.21875 138.976562 116.523438 139.992188 C 116.824219 141.007812 116.597656 142.105469 115.914062 142.914062 L 115.789062 143.058594 C 115.59375 143.292969 115.394531 143.527344 115.191406 143.757812 L 109.496094 150.230469 C 105.792969 154.445312 103.75 159.851562 103.75 165.457031 L 103.75 211.175781 C 103.75 212.367188 104.71875 213.335938 105.910156 213.335938 L 124.195312 213.335938 C 125.386719 213.335938 126.359375 212.367188 126.359375 211.175781 L 126.359375 201.824219 C 126.359375 200.089844 127.769531 198.679688 129.503906 198.679688 L 184.175781 198.679688 C 185.914062 198.679688 187.324219 200.089844 187.324219 201.824219 C 187.324219 203.558594 185.914062 204.964844 184.175781 204.964844 L 132.652344 204.964844 L 132.652344 211.175781 C 132.652344 215.828125 128.859375 219.617188 124.195312 219.617188 " fill-opacity="1" fill-rule="nonzero"/></g><path fill="#ffffff" d="M 206.851562 146.695312 L 218.75 146.695312 C 220.488281 146.695312 221.898438 148.101562 221.898438 149.835938 L 221.898438 182.632812 L 242.992188 141.71875 L 231.09375 141.71875 C 229.355469 141.71875 227.949219 140.3125 227.949219 138.578125 L 227.949219 105.777344 Z M 218.75 198.746094 C 218.507812 198.746094 218.257812 198.71875 218.007812 198.660156 C 216.597656 198.320312 215.601562 197.058594 215.601562 195.605469 L 215.601562 152.976562 L 201.695312 152.976562 C 200.597656 152.976562 199.578125 152.40625 199.007812 151.472656 C 198.4375 150.539062 198.394531 149.371094 198.894531 148.398438 L 228.296875 91.371094 C 228.960938 90.078125 230.421875 89.414062 231.835938 89.753906 C 233.25 90.09375 234.242188 91.355469 234.242188 92.804688 L 234.242188 135.4375 L 248.152344 135.4375 C 249.246094 135.4375 250.265625 136.007812 250.839844 136.941406 C 251.40625 137.875 251.453125 139.039062 250.949219 140.011719 L 221.546875 197.042969 C 221 198.105469 219.90625 198.746094 218.75 198.746094 " fill-opacity="1" fill-rule="nonzero"/><g clip-path="url(#bd43d3de54)"><path fill="#ffffff" d="M 187.324219 213.335938 L 262.519531 213.335938 L 262.519531 78.332031 C 262.519531 76.539062 261.058594 75.078125 259.265625 75.078125 L 190.582031 75.078125 C 188.785156 75.078125 187.324219 76.539062 187.324219 78.332031 Z M 265.667969 219.617188 L 184.175781 219.617188 C 182.4375 219.617188 181.027344 218.210938 181.027344 216.476562 L 181.027344 78.332031 C 181.027344 73.074219 185.3125 68.796875 190.582031 68.796875 L 259.265625 68.796875 C 264.53125 68.796875 268.816406 73.074219 268.816406 78.332031 L 268.816406 216.476562 C 268.816406 218.210938 267.40625 219.617188 265.667969 219.617188 " fill-opacity="1" fill-rule="nonzero"/></g><g clip-path="url(#839fd8cab5)"><path fill="#ffffff" d="M 284.992188 219.613281 L 164.851562 219.613281 C 163.113281 219.613281 161.703125 218.210938 161.703125 216.476562 C 161.703125 214.742188 163.113281 213.335938 164.851562 213.335938 L 284.992188 213.335938 C 286.734375 213.335938 288.140625 214.742188 288.140625 216.476562 C 288.140625 218.210938 286.734375 219.613281 284.992188 219.613281 " fill-opacity="1" fill-rule="nonzero"/></g><g clip-path="url(#71d3bd370b)"><path fill="#ffffff" d="M 244.867188 72.066406 C 243.125 72.066406 241.71875 70.660156 241.71875 68.925781 L 241.71875 55.570312 C 241.71875 53.835938 243.125 52.429688 244.867188 52.429688 C 246.605469 52.429688 248.011719 53.835938 248.011719 55.570312 L 248.011719 68.925781 C 248.011719 70.660156 246.605469 72.066406 244.867188 72.066406 " fill-opacity="1" fill-rule="nonzero"/></g><g clip-path="url(#e131d8bd44)"><path fill="#ffffff" d="M 204.980469 72.066406 C 203.242188 72.066406 201.832031 70.660156 201.832031 68.925781 L 201.832031 55.570312 C 201.832031 53.835938 203.242188 52.429688 204.980469 52.429688 C 206.71875 52.429688 208.125 53.835938 208.125 55.570312 L 208.125 68.925781 C 208.125 70.660156 206.71875 72.066406 204.980469 72.066406 " fill-opacity="1" fill-rule="nonzero"/></g></svg>